HIERARCHY
ROOT Hips
{
  OFFSET 0.0 0.0 0.0
  CHANNELS 6 Xposition Yposition Zposition Zrotation Yrotation Xrotation
  JOINT LHipJoint
  {
    OFFSET 0.0 0.0 0.0
    CHANNELS 3 Zrotation Yrotation Xrotation
    JOINT LeftUpLeg
    {
      OFFSET 1.363059998 -1.794630051 0.839290023
      CHANNELS 3 Zrotation Yrotation Xrotation
      JOINT LeftLeg
      {
        OFFSET 2.448110104 -6.726130009 0.0
        CHANNELS 3 Zrotation Yrotation Xrotation
        JOINT LeftFoot
        {
          OFFSET 2.562200069 -7.039589882 0.0
          CHANNELS 3 Zrotation Yrotation Xrotation
          JOINT LeftToeBase
          {
            OFFSET 0.157639995 -0.433109999 2.322550058
            CHANNELS 3 Zrotation Yrotation Xrotation
            End Site
            {
              OFFSET 0.0 -0.0 1.189659953
            }
          }
        }
      }
    }
  }
  JOINT RHipJoint
  {
    OFFSET 0.0 0.0 0.0
    CHANNELS 3 Zrotation Yrotation Xrotation
    JOINT RightUpLeg
    {
      OFFSET -1.305520058 -1.794630051 0.839290023
      CHANNELS 3 Zrotation Yrotation Xrotation
      JOINT RightLeg
      {
        OFFSET -2.54253006 -6.985549927 0.0
        CHANNELS 3 Zrotation Yrotation Xrotation
        JOINT RightFoot
        {
          OFFSET -2.568259954 -7.056230068 0.0
          CHANNELS 3 Zrotation Yrotation Xrotation
          JOINT RightToeBase
          {
            OFFSET -0.164729998 -0.452589989 2.363149881
            CHANNELS 3 Zrotation Yrotation Xrotation
            End Site
            {
              OFFSET -0.0 -0.0 1.21081996
            }
          }
        }
      }
    }
  }
  JOINT LowerBack
  {
    OFFSET 0.0 0.0 0.0
    CHANNELS 3 Zrotation Yrotation Xrotation
    JOINT Spine
    {
      OFFSET 0.028270001 2.035589933 -0.193379998
      CHANNELS 3 Zrotation Yrotation Xrotation
      JOINT Spine1
      {
        OFFSET 0.05672 2.04885006 -0.042750001
        CHANNELS 3 Zrotation Yrotation Xrotation
        JOINT Neck
        {
          OFFSET 0.0 0.0 0.0
          CHANNELS 3 Zrotation Yrotation Xrotation
          JOINT Neck1
          {
            OFFSET -0.054170001 1.74624002 0.172020003
            CHANNELS 3 Zrotation Yrotation Xrotation
            JOINT Head
            {
              OFFSET 0.10407 1.761360049 -0.123970002
              CHANNELS 3 Zrotation Yrotation Xrotation
              End Site
              {
                OFFSET 0.0372 1.770439982 -0.062410001
              }
            }
          }
        }
        JOINT LeftShoulder
        {
          OFFSET 0.0 0.0 0.0
          CHANNELS 3 Zrotation Yrotation Xrotation
          JOINT LeftArm
          {
            OFFSET 3.362410069 1.200889945 -0.311210006
            CHANNELS 3 Zrotation Yrotation Xrotation
            JOINT LeftForeArm
            {
              OFFSET 4.982999802 -0.0 -0.0
              CHANNELS 3 Zrotation Yrotation Xrotation
              JOINT LeftHand
              {
                OFFSET 3.483560085 -0.0 -0.0
                CHANNELS 3 Zrotation Yrotation Xrotation
                JOINT LeftFingerBase
                {
                  OFFSET 0.0 0.0 0.0
                  CHANNELS 3 Zrotation Yrotation Xrotation
                  JOINT LeftHandIndex1
                  {
                    OFFSET 0.715260029 -0.0 -0.0
                    CHANNELS 3 Zrotation Yrotation Xrotation
                    End Site
                    {
                      OFFSET 0.576659977 -0.0 -0.0
                    }
                  }
                }
                JOINT LThumb
                {
                  OFFSET 0.0 0.0 0.0
                  CHANNELS 3 Zrotation Yrotation Xrotation
                  End Site
                  {
                    OFFSET 0.585470021 -0.0 0.585470021
                  }
                }
              }
            }
          }
        }
        JOINT RightShoulder
        {
          OFFSET 0.0 0.0 0.0
          CHANNELS 3 Zrotation Yrotation Xrotation
          JOINT RightArm
          {
            OFFSET -3.136600018 1.374050021 -0.404650003
            CHANNELS 3 Zrotation Yrotation Xrotation
            JOINT RightForeArm
            {
              OFFSET -5.241899967 -0.0 -0.0
              CHANNELS 3 Zrotation Yrotation Xrotation
              JOINT RightHand
              {
                OFFSET -3.444169998 -0.0 -0.0
                CHANNELS 3 Zrotation Yrotation Xrotation
                JOINT RightFingerBase
                {
                  OFFSET 0.0 0.0 0.0
                  CHANNELS 3 Zrotation Yrotation Xrotation
                  JOINT RightHandIndex1
                  {
                    OFFSET -0.622529984 -0.0 -0.0
                    CHANNELS 3 Zrotation Yrotation Xrotation
                    End Site
                    {
                      OFFSET -0.501900017 -0.0 -0.0
                    }
                  }
                }
                JOINT RThumb
                {
                  OFFSET 0.0 0.0 0.0
                  CHANNELS 3 Zrotation Yrotation Xrotation
                  End Site
                  {
                    OFFSET -0.509559989 -0.0 0.509559989
                  }
                }
              }
            }
          }
        }
      }
    }
  }
}
MOTION
Frames: 4
Frame Time: 0.0083333
0.0 26.625999451 0.0 -172.728713989 2.268988609 -175.774002075 0.0 -0.0 0.0 -10.21020031 1.047899723 -38.200702667 5.542699337 13.970101357 43.117794037 0.936900496 -10.224301338 -17.648200989 0.126200005 2.290100813 6.3081007 0.0 -0.0 0.0 26.144598007 13.068005562 -34.250411987 -9.101402283 -16.872495651 56.439987183 -0.21360001 -6.713501453 -13.662601471 -7.396199226 -15.656697273 50.357395172 3.236700535 -4.21750021 22.317302704 -2.242700338 -2.448999882 11.566102982 -3.702600718 0.018599998 -0.079900004 -10.341899872 4.452999592 -3.444400072 -4.079200745 10.310602188 21.461704254 1.161100268 4.481400013 6.989300251 0.0 -0.0 0.0 -76.131584167 -58.684700012 26.148691177 20.016201019 -30.661802292 -5.539600372 0.0 -0.0 28.274295807 9.933200836 -6.844500065 -1.19560051 -7.125 0.0 0.0 -12.318598747 23.065595627 6.657698631 0.0 -0.0 0.0 103.460739136 58.713085175 55.697826385 -15.672902107 25.075201035 -3.50620079 0.0 -0.0 16.634199142 -34.766597748 -8.781497955 6.04929924 7.125 -0.0 0.0 -6.947999954 -40.533500671 -0.769399583 
0.040499687 26.620399475 0.011901855 -172.647399902 2.563984632 -175.679504395 0.0 -0.0 0.0 -10.029600143 1.706698298 -38.84230423 5.687700272 14.118800163 43.715301514 0.897499681 -10.598000526 -17.382396698 0.101899989 2.058399677 5.666998863 0.0 -0.0 0.0 26.309906006 13.851400375 -34.06199646 -9.513799667 -17.12720108 57.850589752 0.047099926 -8.490200043 -11.138000488 -8.236899376 -16.29079628 53.411495209 2.837999582 -4.158599377 22.170598984 -2.317800283 -2.495100498 11.502601624 -3.548300266 -0.036800001 -0.06719999 -10.70059967 4.702901363 -3.653800249 -3.983599424 10.73859787 21.576198578 1.283800006 4.657300472 7.035100937 0.0 -0.0 0.0 -75.33430481 -58.712299347 25.007713318 19.968904495 -30.604797363 -5.515500546 0.0 -0.0 28.371900558 9.65790081 -7.1872015 -1.219700217 -7.125 0.0 0.0 -12.491297722 22.732801437 6.853399754 0.0 -0.0 0.0 104.281715393 58.593494415 56.74281311 -15.625999451 25.01099968 -3.486299038 0.0 -0.0 16.200696945 -35.477706909 -9.077299118 6.415500641 7.125 -0.0 0.0 -7.594599247 -40.96289444 -0.761099756 
0.060199738 26.592699051 0.019699097 -172.55090332 1.802001834 -175.696899414 0.0 -0.0 0.0 -9.79189682 1.220500469 -39.370296478 5.865098953 14.296300888 44.437698364 0.86839968 -10.921497345 -17.201597214 0.07949999 1.819099903 5.006100178 0.0 -0.0 0.0 26.377296448 13.659798622 -34.149993896 -9.896704674 -17.351396561 59.142692566 0.240099981 -9.869499207 -8.692899704 -8.924401283 -16.758798599 55.828292847 3.073300123 -4.629600048 22.106700897 -2.408300161 -3.085200071 11.486802101 -3.648200035 -0.324699998 -0.118599981 -11.245202065 4.828700066 -4.328101158 -3.545399427 11.113600731 22.272899628 1.580699801 4.780299664 7.326498985 0.0 -0.0 0.0 -74.38168335 -58.77129364 23.874296188 19.948095322 -30.579795837 -5.504899025 0.0 -0.0 28.396999359 9.57020092 -7.309800148 -1.228899956 -7.125 0.0 0.0 -12.545199394 22.613494873 6.919498444 0.0 -0.0 0.0 104.870513916 58.379684448 57.863204956 -15.77870369 25.219600677 -3.551100969 0.0 -0.0 15.648600578 -35.855495453 -9.380103111 6.717801571 7.125 -0.0 0.0 -7.94710207 -41.368804932 -0.716798186 
0.089399338 26.564699173 0.021900177 -172.138504028 1.389001489 -175.869110107 0.0 -0.0 0.0 -9.157601357 1.166100979 -39.775398254 6.063801289 14.489901543 45.237304688 0.842299879 -11.478300095 -17.108804703 0.085399985 1.884699583 5.187199593 0.0 -0.0 0.0 26.904706955 13.736604691 -33.789905548 -10.193697929 -17.517301559 60.133708954 0.358500034 -10.687102318 -5.808200836 -9.517501831 -17.129400253 57.863197327 3.376799345 -4.972699165 22.195299149 -2.410000324 -3.466399431 11.518501282 -3.73390007 -0.499000013 -0.177900001 -11.79650116 5.113899708 -4.683799744 -3.347199917 11.601401329 22.356800079 1.775099754 4.971499443 7.366000652 0.0 -0.0 0.0 -73.457710266 -58.719200134 22.795703888 20.026205063 -30.673904419 -5.544705391 0.0 -0.0 28.509700775 9.499603271 -7.236402988 -1.207500577 -7.125 0.0 0.0 -12.601699829 22.687900543 6.930200577 0.0 -0.0 0.0 105.187286377 58.07460022 59.077976227 -15.943698883 25.444192886 -3.621700525 0.0 -0.0 15.488599777 -36.164096832 -9.275300026 6.719100475 7.125 -0.0 0.0 -8.221100807 -41.27640152 -0.76079917 
